<svg xmlns="http://www.w3.org/2000/svg" viewBox="0 0 120 120" role="img" aria-label="Logo Rolniczek – skrzydlate koło kolejowe">
  <circle cx="60" cy="60" r="57" fill="#123f2a" stroke="#e8c15a" stroke-width="4"/>
  <g fill="#e8c15a">
    <path d="M14 52c14-6 26-6 34 0-10 1-20 4-30 9 8-2 18-3 28 0-10 2-19 5-27 10 8-1 16-1 25 2-9 1-17 4-24 8 7 0 14 1 21 4" opacity=".95"/>
    <path d="M106 52c-14-6-26-6-34 0 10 1 20 4 30 9-8-2-18-3-28 0 10 2 19 5 27 10-8-1-16-1-25 2 9 1 17 4 24 8-7 0-14 1-21 4" opacity=".95"/>
  </g>
  <circle cx="60" cy="58" r="17" fill="none" stroke="#e8c15a" stroke-width="5"/>
  <circle cx="60" cy="58" r="4.5" fill="#e8c15a"/>
  <g stroke="#e8c15a" stroke-width="2.6">
    <line x1="60" y1="43" x2="60" y2="73"/><line x1="45" y1="58" x2="75" y2="58"/>
    <line x1="49.4" y1="47.4" x2="70.6" y2="68.6"/><line x1="70.6" y1="47.4" x2="49.4" y2="68.6"/>
  </g>
  <rect x="24" y="80" width="72" height="4" rx="1" fill="#e8c15a"/>
  <g fill="#e8c15a"><rect x="30" y="86" width="6" height="5"/><rect x="45" y="86" width="6" height="5"/><rect x="60" y="86" width="6" height="5"/><rect x="75" y="86" width="6" height="5"/></g>
  <text x="60" y="104" text-anchor="middle" font-family="Arial,Helvetica,sans-serif" font-weight="700" font-size="11" fill="#e8c15a" letter-spacing="1">ROLNICZEK</text>
</svg>
